<svg xmlns="http://www.w3.org/2000/svg" width="49.234" height="45.978" viewBox="0 0 49.234 45.978">
  <g id="iconfinder_28-appstore_104475" transform="translate(-3.595 -7.135)">
    <path id="Path_7" data-name="Path 7" d="M23.839,29.278l4.17-7.264a1.147,1.147,0,0,0-.42-1.557l-2.967-1.7a1.138,1.138,0,0,0-1.553.418L18.522,27.1h0l-5.009,8.723h0L9.332,43.1a1.136,1.136,0,0,0,.42,1.551l2.965,1.705a1.146,1.146,0,0,0,1.557-.418l5.81-10.121h0Z" fill="#fff"/>
    <path id="Path_8" data-name="Path 8" d="M51.8,27.1H41.788c1.178,2.207,2.27,4.285,3.039,5.754.531,1.016.953,1.818,1.1,2.088a3.635,3.635,0,0,1,.342.881H51.8a1.031,1.031,0,0,0,1.031-1.029V28.127A1.031,1.031,0,0,0,51.8,27.1Z" fill="#fff"/>
    <path id="Path_9" data-name="Path 9" d="M27.466,27.1,22.458,35.82h13.59C35.062,33.873,33.755,31.088,32,27.1Z" fill="#fff"/>
    <path id="Path_10" data-name="Path 10" d="M16.147,27.1H4.625A1.03,1.03,0,0,0,3.6,28.126V34.79a1.03,1.03,0,0,0,1.03,1.029h6.514Z" fill="#fff"/>
    <path id="Path_11" data-name="Path 11" d="M11.749,47.663l-2.965-1.7a.7.7,0,0,0-1.117.564l-.513,4.465c-.071.621.294.844.812.492l3.83-2.611A.659.659,0,0,0,11.749,47.663Z" fill="#fff"/>
    <path id="Path_12" data-name="Path 12" d="M44.124,35.931c-.018-.029-.039-.07-.061-.111h0c-.275-.51-.967-1.836-1.873-3.557-.01-.023-.021-.043-.033-.066-.068-.133-.139-.266-.211-.4-.053-.1-.1-.2-.158-.3s-.09-.172-.135-.26c-.08-.152-.162-.305-.244-.461l-.076-.146c-.092-.176-.186-.352-.281-.531-.027-.051-.053-.1-.082-.154C38.882,26,36.259,21.135,34.64,18.578,31.806,14.1,28.023,6.631,26.966,7.162c-1.479.736,3.1,10.215,4.615,13.777s7.432,17.209,8.617,17.8a2.278,2.278,0,0,0,2.438-.064C43.429,38.349,44.849,37.253,44.124,35.931Z" fill="#fff"/>
    <path id="Path_13" data-name="Path 13" d="M47.505,42.964l-1.412-2.711a1.258,1.258,0,0,0-1.672-.557l-1.7.877A1.119,1.119,0,0,0,42.3,42.2l1.787,2.822a1.284,1.284,0,0,0,1.727.424l1.215-.73A1.344,1.344,0,0,0,47.505,42.964Z" fill="#fff"/>
    <path id="Path_14" data-name="Path 14" d="M47.069,46.888c-.445.426-1.5,1.352-.223,3.148s4.125,1.881,4.5,3.076C51.349,53.112,52.243,43.97,47.069,46.888Z" fill="#fff"/>
  </g>
</svg>
