<svg xmlns="http://www.w3.org/2000/svg" width="184.176" height="201.42" viewBox="0 0 184.176 201.42">
  <g id="Group_3" data-name="Group 3" transform="translate(-2287.972 -10388.283)">
    <path id="Path_3" data-name="Path 3" d="M164.744,164.8a14.583,14.583,0,0,0-.744,5.578v171.25a14.238,14.238,0,0,0,.744,5.441l96.051-91Z" transform="translate(2123.972 10232.996)" fill="#fff"/>
    <path id="Path_4" data-name="Path 4" d="M298.211,220.6,186.086,158.287c-4.521-2.92-8.9-3.585-12.755-2.527l96.583,91.67Z" transform="translate(2123.972 10232.996)" fill="#fff"/>
    <path id="Path_5" data-name="Path 5" d="M339.661,243.582l-29.891-16.61-30.823,29.1,31.216,29.489,29.1-15.941C353.61,261.644,348.3,248.494,339.661,243.582Z" transform="translate(2123.972 10232.996)" fill="#fff"/>
    <path id="Path_6" data-name="Path 6" d="M173.063,356.1c3.984,1.335,8.5.4,13.022-2.262L298.607,292.2l-28.963-27.5Z" transform="translate(2123.972 10232.996)" fill="#fff"/>
  </g>
</svg>
